<?xml version="1.0" encoding="UTF-8"?>
<svg id="Flask" xmlns="http://www.w3.org/2000/svg" viewBox="0 0 700 700">
  <defs>
    <style>
      .cls-1 {
        fill: #fff;
      }
    </style>
  </defs>
  <path class="cls-1" d="m684.73,536.6l-224.87-371.98V53.05l2.69-4.34c6.31-10.18,6.28-22.32-.08-32.48S444.73,0,432.05,0h-164.1c-12.68,0-24.05,6.07-30.42,16.22s-6.39,22.3-.08,32.48l2.69,4.34v111.57l-62.27,103-1.34,2.22L15.27,536.6c-20.78,34.37-20.33,75.17,1.2,109.14,21.53,33.97,59.79,54.25,102.34,54.25h462.38c42.55,0,80.81-20.28,102.34-54.25,21.52-33.97,21.97-74.77,1.2-109.14Zm-23.94,96.8c-16.74,26.42-46.5,42.19-79.6,42.19H118.81c-33.1,0-62.86-15.78-79.6-42.19-16.74-26.43-17.09-58.17-.93-84.9l22.89-37.87h159.55c3.64,0,6.93-1.37,9.32-3.58,2.38-2.2,3.86-5.25,3.86-8.62,0-6.73-5.91-12.2-13.18-12.2H75.92l51.09-84.51h151.09c3.64,0,6.93-1.37,9.32-3.57,2.39-2.21,3.87-5.26,3.87-8.63,0-6.73-5.91-12.2-13.18-12.2h-136.35l51.58-85.31h145.78c3.64,0,6.93-1.37,9.32-3.57,2.38-2.21,3.86-5.26,3.86-8.63,0-6.73-5.91-12.2-13.18-12.2h-131.04l58.43-96.64V46.56l-6.19-9.99c-2.27-3.67-.74-6.9.03-8.12.76-1.22,3.03-4.06,7.6-4.06h164.1c4.57,0,6.84,2.84,7.6,4.06s2.29,4.45.03,8.12l-6.19,9.99v124.42l228.23,377.53c16.16,26.73,15.81,58.47-.93,84.9Z"/>
  <polygon class="cls-1" points="154.15 246.7 152.62 249.42 152.62 246.7 154.15 246.7"/>
</svg>