<?xml version="1.0" encoding="UTF-8"?>
<svg xmlns="http://www.w3.org/2000/svg" viewBox="0 0 1080 1080">
  <defs>
    <style>
      .cls-1 {
        fill: #fff;
      }

      .cls-2 {
        fill: #7cc89d;
        opacity: .5;
      }
    </style>
  </defs>
  <g id="app_icon" data-name="app icon">
    <rect class="cls-1" width="1080" height="1080" rx="160" ry="160"/>
    <rect class="cls-2" width="1080" height="1080" rx="160" ry="160"/>
    <path class="cls-2" d="m1080,160v760c0,88.37-71.63,160-160,160H160c-27.82,0-53.99-7.1-76.78-19.59h0c619.56-117.11,1016.01-820.31,983.94-963.33,8.26,19.31,12.84,40.58,12.84,62.92Z"/>
  </g>
  <g id="thick">
    <polygon class="cls-1" points="455.65 961.75 286.95 961.75 118.25 540 286.95 118.25 455.65 118.25 286.95 540 455.65 961.75"/>
    <path class="cls-1" d="m961.75,118.25v168.7c0,372.68-159.12,674.8-438.63,674.8l-67.47-168.7c186.34,0,337.4-226.59,337.4-506.1h-337.4l67.47-168.7h438.63Z"/>
    <g>
      <polygon class="cls-1" points="456.15 962.25 287.45 962.25 118.75 540.5 287.45 118.75 456.15 118.75 287.45 540.5 456.15 962.25"/>
      <path class="cls-1" d="m962.25,118.75v168.7c0,372.68-159.12,674.8-438.63,674.8l-67.47-168.7c186.34,0,337.4-226.59,337.4-506.1h-337.4l67.47-168.7h438.63Z"/>
    </g>
  </g>
</svg>